<svg width="166" height="208" viewBox="0 0 166 208" fill="none" xmlns="http://www.w3.org/2000/svg">
<path d="M134 145.553C134 180.041 96.9051 208 62.4274 208C27.9497 208 0 180.041 0 145.553C0 111.064 12.3508 80 46.8285 80C81.3062 80 134 111.064 134 145.553Z" fill="#FFCB3C"/>
<path d="M76.6054 1.81028C76.8168 5.02831 76.7698 8.26983 76.4645 11.4644C76.4175 11.8637 76.394 12.263 76.3235 12.6388C76.3 12.8268 76.2766 13.0147 76.2531 13.2026C76.2296 13.4845 76.3236 12.7563 76.2531 13.1791C76.2296 13.2965 76.2296 13.4375 76.2061 13.5549C76.0886 14.3536 75.9478 15.1522 75.8068 15.9508C75.5015 17.5481 75.1022 19.1454 74.6324 20.6957C74.3975 21.4238 74.1626 22.152 73.9042 22.8802C73.7632 23.2325 73.6457 23.5848 73.4813 23.9372C73.4578 24.0076 73.3639 24.1251 73.3639 24.2191C73.3639 23.9842 73.5048 23.9137 73.4109 24.0781C73.3169 24.266 73.2464 24.4539 73.1525 24.6419C72.5887 25.8868 71.9075 27.0848 71.1559 28.2122C70.9915 28.4706 70.8036 28.729 70.6157 28.9874C70.5217 29.1283 70.4042 29.2693 70.3102 29.4102C70.2633 29.4572 70.2163 29.5276 70.1928 29.5746C70.4277 29.1518 70.2868 29.4572 70.2163 29.5511C69.7935 30.0914 69.3238 30.6316 68.854 31.1484C68.3842 31.6417 67.9144 32.1115 67.3976 32.5812C67.1627 32.7926 66.9044 33.004 66.646 33.2154C66.5286 33.3094 66.4111 33.4034 66.2937 33.4973C66.1058 33.6383 66.646 33.2154 66.3641 33.4503C66.2701 33.5208 66.1996 33.5678 66.1057 33.6383C65.495 34.0846 64.8607 34.5074 64.203 34.8832C63.5453 35.259 62.8642 35.5409 62.183 35.8932C62.2065 35.8697 62.5823 35.7288 62.3239 35.8228C62.2299 35.8698 62.136 35.8932 62.0421 35.9402C61.8542 36.0107 61.6663 36.0811 61.4549 36.1516C61.1025 36.269 60.7502 36.3865 60.3743 36.4805C59.6462 36.6919 58.8945 36.8328 58.1428 36.9268C57.7435 36.9737 57.2737 37.3966 57.0858 37.7254C56.8979 38.0777 56.8275 38.4536 56.8744 38.8529C56.9919 39.6985 57.72 40.3797 58.6126 40.3797C60.3273 40.3562 62.042 40.3562 63.7568 40.4736C64.1561 40.4971 64.5319 40.5441 64.9312 40.5911C64.9547 40.5911 65.3776 40.6615 65.0957 40.6146C64.7903 40.5676 65.2131 40.6381 65.2601 40.6381C65.4715 40.6616 65.6829 40.7085 65.8943 40.7555C66.7399 40.9199 67.562 41.1313 68.3607 41.3897C68.5016 41.4367 68.666 41.5072 68.807 41.5541C68.8774 41.5776 68.9714 41.6246 69.0418 41.6481C69.1828 41.6951 69.3237 41.836 68.9479 41.6011C69.2298 41.789 69.5821 41.883 69.8875 42.0474C70.4747 42.3528 71.0385 42.6816 71.5552 43.0575C71.6962 43.1514 71.8371 43.2454 71.978 43.3628C72.025 43.4098 72.0955 43.4568 72.1425 43.4803C72.3774 43.6447 72.0485 43.4098 72.025 43.3863C72.2599 43.6212 72.5653 43.8326 72.8236 44.044C73.3404 44.5138 73.8336 44.9836 74.3034 45.5003C74.5148 45.7352 74.7263 45.9701 74.9142 46.205C75.0081 46.3225 75.1022 46.4399 75.2196 46.5808C75.3605 46.7688 74.9612 46.2285 75.1726 46.5104C75.243 46.6044 75.29 46.6748 75.3604 46.7688C75.7598 47.309 76.1121 47.8728 76.4645 48.4365C76.8168 49.0237 77.1457 49.6344 77.4511 50.2452C77.592 50.5505 77.7329 50.8559 77.8738 51.1613C77.8973 51.2317 77.9208 51.3022 77.9678 51.3492C77.7799 50.9029 77.8973 51.1613 77.9443 51.2787C78.0147 51.4666 78.0853 51.6311 78.1558 51.819C78.696 53.2283 79.0953 54.6612 79.4006 56.1175C79.4946 56.5403 79.5651 56.9396 79.6355 57.3624C79.659 57.5269 79.6825 57.7148 79.7295 57.8792C79.753 58.0201 79.7765 58.1376 79.7765 58.2785C79.7765 58.2081 79.753 58.1376 79.753 58.0671C79.753 58.1611 79.7765 58.2315 79.7765 58.3255C79.8705 59.1711 79.9644 59.9932 80.0114 60.8389C80.2698 64.7146 80.0349 68.6138 79.7765 72.4661C79.7295 73.3352 80.4812 74.0868 81.3033 74.2042C82.1724 74.3217 82.971 73.7815 83.2294 72.9358C85.085 67.04 85.32 60.8153 86.7058 54.8256C87.0112 53.4867 87.3635 52.1478 87.8333 50.8324C87.9272 50.5505 88.0447 50.2687 88.1387 50.0103C88.1857 49.8693 88.2796 49.7284 88.3266 49.564C88.3266 49.5875 88.1621 49.9633 88.2796 49.7049C88.303 49.6345 88.3501 49.5405 88.3736 49.47C88.632 48.9063 88.8903 48.366 89.1722 47.8258C89.736 46.7453 90.3936 45.7118 91.1218 44.7487C91.1688 44.7017 91.2157 44.6312 91.2392 44.5843C91.0043 44.9366 91.0748 44.7957 91.1453 44.7017C91.2392 44.5843 91.3332 44.4668 91.4272 44.3494C91.6151 44.1145 91.8264 43.8796 92.0378 43.6447C92.4372 43.1984 92.86 42.7756 93.2828 42.3998C93.5412 42.1649 93.7761 41.9535 94.0579 41.7421C94.1049 41.6951 94.1519 41.6716 94.2224 41.6246C93.7996 41.9535 94.1049 41.7186 94.1754 41.6481C94.3163 41.5541 94.4338 41.4602 94.5747 41.3662C95.0915 41.0139 95.6317 40.6851 96.1955 40.4032C96.3364 40.3327 96.5008 40.2622 96.6418 40.1918C96.7122 40.1683 96.7593 40.1448 96.8297 40.1213C97.1586 39.9804 96.4774 40.2622 96.7827 40.1448C97.0881 40.0273 97.3934 39.9099 97.7223 39.816C98.0511 39.722 98.3565 39.628 98.6854 39.5575C98.8263 39.5341 98.9907 39.4871 99.1316 39.4636C99.2726 39.4401 99.9302 39.3461 99.3195 39.4166C99.7893 39.3461 100.236 39.2757 100.565 38.8999C100.823 38.618 100.987 38.2891 101.058 37.8898C101.175 37.0912 100.658 36.1281 99.7893 35.9637C99.1081 35.8228 98.427 35.6583 97.7458 35.4469C97.4404 35.353 97.1585 35.2355 96.8531 35.1416C96.6887 35.0711 96.5244 35.0006 96.36 34.9537C96.9002 35.1651 96.2894 34.9067 96.1485 34.8597C94.9035 34.2725 93.7057 33.5678 92.6017 32.7457C92.5547 32.6987 92.4842 32.6517 92.4372 32.6282C92.2023 32.4403 92.5312 32.6987 92.5546 32.7222C92.4372 32.6047 92.2728 32.5108 92.1319 32.3933C91.85 32.1584 91.5915 31.947 91.3332 31.7122C90.8164 31.2424 90.2997 30.7491 89.8299 30.2088C89.3601 29.6921 88.9138 29.1753 88.4675 28.635C88.4206 28.5646 88.3735 28.4941 88.3031 28.4237C88.3266 28.4471 88.5615 28.7525 88.3736 28.5176C88.2562 28.3766 88.1621 28.2357 88.0447 28.0948C87.8333 27.8129 87.6219 27.5075 87.434 27.2257C86.6589 26.0747 85.9776 24.8533 85.3669 23.6083C85.226 23.303 85.0851 23.0211 84.9441 22.7157C84.8972 22.6453 84.8737 22.5513 84.8502 22.4809C84.7328 22.2225 84.8971 22.5748 84.8971 22.5983C84.8266 22.3869 84.7327 22.199 84.6622 22.0111C84.4038 21.3769 84.1689 20.7191 83.934 20.0614C82.9475 17.1723 82.2194 14.1891 81.6321 11.1825C81.3033 9.51477 80.998 7.82354 80.7396 6.13232C80.6221 5.33368 80.5047 4.55854 80.3872 3.7599C80.3403 3.36059 80.2698 2.98476 80.2228 2.58544C80.1993 2.44451 80.1053 1.7868 80.1993 2.37403C80.1758 2.16263 80.1523 1.97472 80.1288 1.76332C80.0584 1.27004 79.9644 0.870712 79.612 0.518372C79.3067 0.213012 78.8134 -0.0218696 78.3671 0.00161971C77.9208 0.025109 77.4275 0.166033 77.1221 0.518372C76.8168 0.894201 76.535 1.36399 76.6054 1.81028C77.4276 7.98796 78.3672 14.2361 80.2698 20.1789C82.102 25.8398 85.0851 31.2424 89.7594 35.0241C92.4137 37.1617 95.4674 38.8059 98.8263 39.4401C98.9908 38.2891 99.1317 37.1382 99.2961 35.9872C97.8398 36.1751 96.5008 36.5509 95.1385 37.1382C93.9405 37.6549 92.8365 38.3596 91.8029 39.1817C89.7829 40.7555 88.1152 42.7991 86.7998 44.9836C85.4139 47.2621 84.4038 49.7754 83.7227 52.3592C82.9005 55.4128 82.4307 58.5604 81.961 61.6845C81.4442 65.2079 80.9039 68.7313 79.8234 72.1372C80.9744 72.3016 82.1254 72.4426 83.2764 72.607C83.7227 65.6542 84.122 58.3725 81.7731 51.678C79.8235 46.0876 75.9947 40.8495 70.4277 38.5005C66.6929 36.9267 62.6058 36.8798 58.6126 36.9268C58.7771 38.0777 58.918 39.2287 59.0824 40.3797C65.0017 39.5575 70.0519 35.7288 73.5048 31.031C77.3336 25.8163 79.0014 19.2628 79.8 12.9207C80.2698 9.23291 80.3637 5.52158 80.1053 1.83377C80.0349 0.917684 79.3302 0.0250918 78.3436 0.0720704C77.451 0.0955596 76.535 0.823733 76.6054 1.81028Z" fill="#231F20"/>
<path d="M11.3754 49.5627C11.7747 51.3244 12.1271 53.1095 12.4324 54.8947C12.5969 55.7638 12.7379 56.6329 12.8553 57.502C12.9258 57.9483 12.9962 58.3711 13.0432 58.8174C13.0667 59.0053 13.0901 59.2167 13.1136 59.4046C13.1606 59.7335 13.1136 59.4281 13.1136 59.3812C13.1371 59.5221 13.1606 59.663 13.1606 59.8275C13.6304 63.3743 13.9122 66.9212 14.0532 70.4916C14.1237 72.0184 14.1237 73.5217 14.0298 75.0485C14.0063 75.4009 13.9827 75.7532 13.9357 76.1055C13.9122 76.2935 13.8888 76.4813 13.8653 76.6693C13.8418 76.8572 13.9123 76.9981 13.8653 76.6223C13.8888 76.7397 13.8183 76.8807 13.8183 76.9981C13.7008 77.7263 13.5599 78.431 13.3485 79.1356C13.2545 79.488 13.1371 79.8168 13.0197 80.1692C12.9727 80.3101 12.8788 80.4745 12.8553 80.6155C12.9493 80.2631 12.9492 80.4276 12.9022 80.5215C12.8553 80.639 12.8083 80.7329 12.7613 80.8504C12.4324 81.5316 12.0566 82.1658 11.6103 82.7765C11.4929 82.9174 11.3989 83.0818 11.2815 83.2228C11.305 83.1758 11.5164 82.9174 11.3285 83.1523C11.2815 83.2228 11.2345 83.2932 11.164 83.3402C10.9292 83.6456 10.6707 83.951 10.4123 84.2563C9.91907 84.8201 9.37889 85.3838 8.83863 85.924C8.2514 86.5113 7.64061 87.0515 7.0064 87.5918C6.67755 87.8736 6.34875 88.1555 5.99641 88.4139C5.92594 88.4844 5.83198 88.5549 5.76151 88.6018C5.71454 88.6253 5.43266 88.8602 5.64407 88.6958C5.87896 88.5314 5.55011 88.7663 5.52662 88.7898C5.43266 88.8602 5.31526 88.9307 5.22131 89.0246C3.81195 90.0582 2.35562 91.0212 0.87579 91.9373C0.24158 92.3366 -0.181319 93.1822 0.0770632 93.9339C0.311956 94.6386 0.993191 95.2728 1.76834 95.2258C3.24816 95.1318 4.72799 95.0614 6.2313 95.1319C7.21785 95.1788 8.2044 95.2728 9.16746 95.3902C9.70771 95.4372 10.2244 95.4842 10.7647 95.5312C10.9291 95.5312 11.0936 95.5546 11.258 95.5781C11.305 95.5781 11.3285 95.5782 11.3754 95.6016C11.5633 95.6251 11.5163 95.6251 11.2345 95.5781C11.2815 95.6016 11.399 95.6016 11.446 95.6016C11.8218 95.6721 12.1976 95.7426 12.5734 95.86C12.9023 95.954 13.2311 96.0714 13.5365 96.1889C13.6304 96.2124 13.7009 96.2593 13.7949 96.2828C14.0298 96.3768 13.372 96.0949 13.7244 96.2593C13.9123 96.3533 14.0768 96.4237 14.2647 96.5177C14.9224 96.8466 15.5331 97.2224 16.1203 97.6452C16.1908 97.6922 16.2612 97.7626 16.3317 97.8096C16.5901 97.9975 16.2612 97.7627 16.2378 97.7392C16.3082 97.8566 16.5666 97.9975 16.6605 98.0915C16.9659 98.3499 17.2478 98.6083 17.5297 98.8666C18.0699 99.3834 18.6102 99.9471 19.08 100.511C19.3149 100.793 19.5497 101.075 19.7611 101.357C20.0195 101.685 19.5263 101.028 19.7611 101.357C19.8081 101.427 19.8551 101.474 19.9021 101.544C20.043 101.732 20.1839 101.92 20.3014 102.108C20.7477 102.742 21.1704 103.377 21.5698 104.034C22.4389 105.467 23.2375 106.97 23.9657 108.474C24.365 109.296 24.7643 110.141 25.1402 110.964C25.2341 111.152 25.3046 111.339 25.3986 111.527C25.4456 111.621 25.4926 111.739 25.5395 111.833C25.657 112.138 25.5395 111.856 25.516 111.786C25.7274 112.256 25.8918 112.725 26.0797 113.195C27.6065 117.047 28.781 121.017 29.6031 125.081C29.7676 125.95 30.7307 126.443 31.5293 126.349C32.4689 126.232 32.9621 125.504 33.0561 124.611C33.8782 117.541 32.093 110.517 32.5158 103.424C32.5393 102.86 32.6098 102.296 32.6567 101.756C32.6802 101.615 32.7038 101.474 32.7038 101.333C32.7273 101.098 32.6333 101.826 32.6803 101.474C32.6803 101.403 32.7038 101.357 32.7038 101.286C32.7507 100.981 32.7976 100.675 32.8446 100.37C33.056 99.172 33.3379 97.9741 33.6667 96.8231C33.8546 96.2124 34.0426 95.6016 34.254 94.9909C34.3479 94.709 34.4419 94.4507 34.5594 94.1923C34.6064 94.0514 34.6768 93.9104 34.7238 93.7695C34.8412 93.5111 34.6768 93.8869 34.6533 93.9104C34.7003 93.8164 34.7238 93.7225 34.7708 93.6285C35.2641 92.5245 35.8278 91.444 36.509 90.434C36.6734 90.1756 36.8614 89.9172 37.0493 89.6588C37.0728 89.6119 37.2841 89.3535 37.0727 89.6119C36.8848 89.8703 37.0962 89.5884 37.1432 89.5414C37.2372 89.424 37.3311 89.3065 37.4485 89.1891C37.8478 88.7193 38.2942 88.273 38.764 87.8737C38.8814 87.7562 39.0224 87.6623 39.1398 87.5683C39.3042 87.4274 38.8109 87.8032 38.9988 87.6857C39.0693 87.6388 39.1398 87.5918 39.2102 87.5213C39.4686 87.3569 39.7036 87.1925 39.9854 87.0281C40.2438 86.8871 40.5022 86.7462 40.7605 86.6287C40.8075 86.6052 41.0894 86.4878 40.7841 86.6052C40.5022 86.7227 40.7371 86.6287 40.8076 86.6052C40.972 86.5348 41.1363 86.4878 41.3007 86.4408C42.0054 86.2059 42.6396 85.5247 42.5927 84.7496C42.5457 83.9509 42.0759 83.3167 41.3007 83.0584C38.2941 82.0483 35.1467 81.6255 32.1165 80.6624C31.7642 80.545 31.4119 80.4276 31.0595 80.2866C30.989 80.2631 30.9185 80.2397 30.848 80.2162C30.801 80.1927 30.4957 80.0282 30.7541 80.1692C31.0125 80.3101 30.7071 80.1457 30.6602 80.1222C30.5662 80.0752 30.4488 80.0283 30.3548 79.9813C29.6736 79.6759 29.0394 79.3001 28.4287 78.8773C28.3347 78.8068 28.2407 78.7363 28.1468 78.6894C27.9353 78.5484 28.1938 78.7598 28.2408 78.7598C28.1703 78.7833 27.8649 78.4545 27.7944 78.384C27.4891 78.1021 27.1837 77.8203 26.9019 77.5149C26.667 77.2565 26.4321 76.9746 26.1972 76.6928C26.0797 76.5518 25.9623 76.4109 25.8448 76.27C26.1502 76.6223 25.9623 76.4109 25.8919 76.3169C25.8214 76.223 25.7509 76.1055 25.657 76.0116C24.8114 74.8606 24.1066 73.6392 23.4724 72.3707C23.308 72.0419 23.1671 71.7365 23.0261 71.4077C22.9557 71.2668 22.8852 71.1258 22.8383 70.9614C22.7913 70.8909 22.7678 70.797 22.7208 70.7265C22.5799 70.3976 22.8618 71.0553 22.7208 70.75C22.4389 70.0688 22.1805 69.3641 21.9221 68.6829C20.8651 65.7702 20.043 62.7636 19.1269 59.804C17.8585 55.8108 16.3787 51.8881 14.4525 48.1768C14.0297 47.3547 12.8083 47.0493 12.0332 47.5426C11.1876 48.0828 10.9526 49.0694 11.3989 49.962C11.8687 50.8546 12.3151 51.7706 12.7379 52.6867C12.9258 53.1095 13.1372 53.5323 13.3016 53.9551C13.2781 53.9082 13.1606 53.6028 13.2781 53.9082C13.3251 54.0021 13.3721 54.1196 13.419 54.2135C13.513 54.4484 13.6069 54.6833 13.7008 54.8947C14.3585 56.539 14.9458 58.2067 15.4861 59.8979C16.4726 62.9281 17.3183 66.0051 18.3518 69.0118C19.3383 71.8775 20.5363 74.7197 22.251 77.233C23.1671 78.5719 24.2006 79.9343 25.469 80.9678C26.8314 82.1188 28.3348 82.9409 30.0025 83.5751C33.338 84.867 36.9553 85.2429 40.3378 86.3703C40.3378 85.2429 40.3378 84.1154 40.3378 82.9644C35.2171 84.6087 32.2809 89.7058 30.6602 94.4976C29.8145 96.964 29.2978 99.5478 29.0394 102.132C28.7106 105.467 28.9454 108.85 29.2273 112.185C29.5561 116.296 29.9555 120.406 29.4857 124.517C30.6367 124.353 31.7877 124.212 32.9387 124.047C32.187 120.359 31.1299 116.718 29.8145 113.195C28.4756 109.648 26.9018 106.148 24.9992 102.86C23.3785 100.088 21.4289 97.3868 18.939 95.3432C17.5766 94.2392 16.1672 93.3467 14.523 92.7125C13.0666 92.1252 11.5399 91.9608 9.98959 91.8198C8.8621 91.7259 7.75815 91.585 6.63066 91.5145C4.96293 91.4205 3.31863 91.491 1.65089 91.585C1.95625 92.689 2.23808 93.7695 2.54344 94.8735C5.31517 93.1587 8.01646 91.2796 10.4359 89.0481C12.8318 86.8166 15.0633 84.2563 16.2613 81.1792C17.4122 78.2196 17.6001 74.9076 17.5297 71.7365C17.4592 68.1427 17.1773 64.5488 16.7545 61.0019C16.2612 56.8208 15.5565 52.6397 14.6404 48.5291C14.429 47.6365 13.3486 47.0258 12.4795 47.3077C11.6573 47.707 11.1405 48.5996 11.3754 49.5627Z" fill="#231F20"/>
<path d="M103.783 96.8712C104.112 98.1631 104.37 99.455 104.558 100.794C104.535 100.629 104.511 100.489 104.488 100.324C104.84 102.931 104.887 105.609 104.535 108.217C104.558 108.052 104.582 107.911 104.605 107.747C104.323 109.861 103.783 111.928 102.961 113.877C103.031 113.736 103.078 113.596 103.149 113.455C102.749 114.394 102.303 115.31 101.763 116.179C101.505 116.626 101.199 117.072 100.894 117.495C100.753 117.683 100.612 117.871 100.471 118.059C100.847 117.565 100.541 117.965 100.447 118.082C100.354 118.199 100.26 118.317 100.166 118.411C99.5079 119.209 98.7563 119.938 97.9811 120.619C97.7932 120.783 97.5818 120.948 97.3939 121.112C97.2764 121.206 96.8771 121.511 97.3704 121.136C97.2529 121.206 97.159 121.3 97.0415 121.394C96.5953 121.723 96.1255 122.028 95.6557 122.334C94.7631 122.874 93.8705 123.344 92.9074 123.743C93.0483 123.672 93.1892 123.625 93.3302 123.555C92.649 123.837 91.9679 124.119 91.2867 124.424C90.8169 124.636 90.3706 124.823 90.0183 125.176C89.2196 125.927 89.3605 127.219 90.1826 127.854C90.6054 128.182 91.1692 128.276 91.6625 128.417C92.5081 128.676 93.3537 128.981 94.1758 129.333C94.0349 129.263 93.894 129.216 93.753 129.145C95.9845 130.109 98.1455 131.306 100.072 132.763C100.119 132.81 100.166 132.833 100.213 132.88C99.8133 132.575 99.9777 132.716 100.072 132.763C100.189 132.857 100.283 132.927 100.4 133.021C100.612 133.186 100.823 133.374 101.011 133.538C101.364 133.867 101.716 134.196 102.045 134.571C102.209 134.736 102.35 134.924 102.515 135.112C102.585 135.206 102.655 135.3 102.726 135.394C102.796 135.488 102.914 135.652 102.585 135.229C102.632 135.3 102.679 135.347 102.726 135.417C103.008 135.793 103.29 136.192 103.525 136.615C104.135 137.578 104.629 138.612 105.098 139.669C105.028 139.528 104.981 139.387 104.91 139.246C106.602 143.286 107.377 147.632 108.128 151.93C108.316 153.081 108.528 154.232 108.739 155.383C108.81 155.782 109.209 156.252 109.538 156.44C109.89 156.628 110.266 156.698 110.665 156.651C111.534 156.534 112.169 155.806 112.192 154.913C112.263 152.964 112.333 151.014 112.404 149.041C112.474 147.162 112.474 145.259 112.732 143.38C112.709 143.544 112.685 143.685 112.662 143.85C112.897 142.229 113.249 140.608 113.672 139.034C113.883 138.259 114.118 137.484 114.353 136.709C114.564 136.075 114.752 135.417 115.011 134.783C114.94 134.924 114.893 135.065 114.823 135.206C115.152 134.454 115.575 133.749 116.068 133.092C116.138 132.998 116.209 132.904 116.279 132.786C116.444 132.575 115.974 133.162 116.232 132.833C116.397 132.622 116.561 132.434 116.726 132.223C117.031 131.847 117.36 131.494 117.689 131.142C118.393 130.414 119.145 129.709 119.92 129.028C120.108 128.864 120.296 128.723 120.484 128.558C120.578 128.488 120.672 128.417 120.766 128.323C120.813 128.276 120.86 128.229 120.93 128.206C120.86 128.253 120.578 128.488 120.789 128.3C121.165 128.018 121.564 127.736 121.94 127.454C122.715 126.937 123.514 126.444 124.383 126.092C124.242 126.162 124.101 126.209 123.96 126.28C124.031 126.256 124.101 126.233 124.172 126.186C124.594 126.021 124.994 125.786 125.229 125.387C125.417 125.035 125.487 124.659 125.44 124.26C125.323 123.391 124.594 122.733 123.702 122.733C123.303 122.733 122.903 122.709 122.527 122.662C122.692 122.686 122.833 122.709 122.997 122.733C122.222 122.615 121.447 122.404 120.719 122.099C120.86 122.169 121.001 122.216 121.142 122.287C120.695 122.099 120.272 121.887 119.873 121.629C119.662 121.511 119.474 121.371 119.262 121.253C119.168 121.183 119.051 121.112 118.957 121.042C118.91 121.018 118.863 120.971 118.816 120.948C118.793 120.924 118.769 120.901 118.746 120.901C118.581 120.76 118.98 121.089 118.957 121.065C118.158 120.407 117.407 119.703 116.702 118.928C116.538 118.716 116.35 118.528 116.185 118.317C116.115 118.223 116.021 118.105 115.95 118.012C115.763 117.777 116.138 118.246 116.068 118.152C116.021 118.082 115.974 118.035 115.927 117.965C115.575 117.518 115.269 117.048 114.94 116.579C114.283 115.592 113.695 114.559 113.155 113.502C112.521 112.28 111.934 111.012 111.394 109.743C111.464 109.884 111.511 110.025 111.581 110.166C110.008 106.431 108.786 102.532 107.776 98.5859C107.541 97.6698 107.33 96.7772 107.118 95.8612C106.907 94.9686 105.826 94.3578 104.957 94.6397C104.065 95.0155 103.548 95.9081 103.783 96.8712C104.276 99.0087 104.816 101.146 105.451 103.26C106.179 105.727 107.025 108.193 107.988 110.589C109.021 113.102 110.172 115.592 111.628 117.894C112.92 119.961 114.471 121.981 116.373 123.508C117.289 124.236 118.252 124.917 119.333 125.387C120.531 125.904 121.705 126.233 123.021 126.35C123.279 126.374 123.537 126.374 123.772 126.374C123.608 125.223 123.467 124.072 123.303 122.921C121.376 123.672 119.709 124.847 118.111 126.139C116.514 127.431 115.011 128.887 113.742 130.508C113.108 131.306 112.521 132.105 112.051 133.021C111.511 134.102 111.159 135.276 110.806 136.427C109.961 139.222 109.279 142.065 109.068 144.977C108.951 146.621 108.927 148.289 108.88 149.933C108.833 151.625 108.763 153.292 108.716 154.984C109.867 154.819 111.018 154.678 112.169 154.514C111.323 149.84 110.689 145.095 109.185 140.585C108.41 138.306 107.447 136.028 106.038 134.055C105.333 133.045 104.535 132.105 103.642 131.259C102.609 130.32 101.457 129.474 100.283 128.723C98.9911 127.877 97.6288 127.125 96.2194 126.491C95.4208 126.115 94.5987 125.786 93.753 125.481C93.0719 125.246 92.3906 125.058 91.7094 124.847C91.8504 124.917 91.9914 124.964 92.1323 125.035C92.3437 125.246 92.5315 125.434 92.7429 125.646C92.8134 125.786 92.8605 125.927 92.9309 126.068C92.9544 126.233 92.9779 126.374 93.0013 126.538C92.9779 126.703 92.9544 126.844 92.9309 127.008C92.8605 127.149 92.8134 127.29 92.7429 127.431C92.602 127.642 92.4141 127.901 92.2027 127.994C92.2497 127.971 92.2732 127.948 92.3202 127.924C92.4376 127.854 92.5551 127.807 92.6725 127.736C93.0014 127.572 93.3537 127.431 93.706 127.29C93.5651 127.36 93.4242 127.407 93.2833 127.478C94.2463 127.078 95.2328 126.679 96.1724 126.186C97.2529 125.622 98.2629 124.964 99.226 124.236C101.27 122.662 103.031 120.807 104.417 118.646C107.095 114.535 108.269 109.555 108.293 104.693C108.293 101.78 107.894 98.8443 107.189 96.0256C106.954 95.133 105.92 94.4988 105.028 94.8041C104.088 95.0155 103.525 95.9081 103.783 96.8712Z" fill="#231F20"/>
<path d="M127.577 34.5533C127.765 35.4224 127.929 36.2915 128.07 37.1606C128.141 37.5834 128.211 38.0297 128.282 38.476C128.305 38.6169 128.423 39.2746 128.329 38.7579C128.376 39.0163 128.399 39.2746 128.423 39.5095C128.634 41.2947 128.799 43.1034 128.892 44.9121C129.08 48.5529 129.057 52.2172 128.798 55.8346C128.728 56.7272 128.658 57.6198 128.587 58.5358C128.54 58.9352 128.517 59.358 128.47 59.7573C128.446 59.9452 128.423 60.1331 128.399 60.3445C128.399 60.4385 128.376 60.5324 128.376 60.6029C128.352 60.7438 128.376 60.6734 128.399 60.3915C128.399 60.462 128.376 60.5324 128.376 60.6029C128.164 62.1062 127.835 63.586 127.436 65.0424C127.225 65.7705 126.99 66.4987 126.731 67.2034C126.591 67.5557 126.473 67.9081 126.332 68.2604C126.309 68.3544 126.262 68.4248 126.238 68.5188C126.379 68.0725 126.309 68.3309 126.262 68.4483C126.168 68.6362 126.097 68.8476 126.003 69.0355C125.369 70.4214 124.641 71.7368 123.772 73.0052C123.537 73.3576 123.279 73.7099 123.02 74.0388C122.95 74.1327 122.809 74.2502 123.091 73.9448C123.02 74.0388 122.926 74.1327 122.856 74.2267C122.715 74.3911 122.597 74.5555 122.456 74.72C121.916 75.3542 121.352 75.9414 120.742 76.5286C120.436 76.8105 120.131 77.0924 119.802 77.3742C119.638 77.5152 119.45 77.6326 119.309 77.7736C119.614 77.4682 119.497 77.6326 119.379 77.7266C119.285 77.797 119.191 77.8675 119.074 77.938C118.393 78.4313 117.665 78.9011 116.913 79.3004C116.255 79.6527 115.879 80.5688 116.114 81.297C116.208 81.5788 116.349 81.8607 116.561 82.0721C116.819 82.354 117.406 82.6359 117.806 82.5889C119.379 82.401 120.953 82.307 122.527 82.354C123.302 82.3775 124.054 82.4244 124.829 82.4949C125.017 82.5184 125.228 82.5419 125.416 82.5654C125.557 82.5889 126.262 82.6828 125.651 82.5889C126.05 82.6593 126.45 82.7063 126.849 82.7768C128.376 83.0352 129.902 83.411 131.382 83.8808C132.134 84.1157 132.886 84.3741 133.614 84.6794C133.778 84.7499 133.919 84.7969 134.084 84.8673C134.177 84.9143 134.271 84.9378 134.365 84.9848C133.872 84.7969 134.201 84.9143 134.318 84.9613C134.694 85.1257 135.047 85.2901 135.422 85.4546C136.855 86.1357 138.241 86.8874 139.557 87.733C140.214 88.1558 140.849 88.5786 141.459 89.0484C141.624 89.1659 141.788 89.2833 141.952 89.4008C142.023 89.4712 142.117 89.5182 142.187 89.5887C141.812 89.3068 141.976 89.4243 142.07 89.4947C142.422 89.7766 142.751 90.035 143.08 90.3169C144.254 91.3034 145.382 92.3839 146.415 93.5114C146.956 94.0986 147.472 94.7093 147.989 95.3435C148.083 95.4845 148.201 95.6019 148.295 95.7429C147.919 95.2966 148.365 95.8368 148.436 95.9543C148.67 96.2831 148.905 96.612 149.14 96.9408C150.127 98.3737 151.019 99.877 151.771 101.427C151.959 101.827 152.147 102.226 152.311 102.602C152.452 102.931 152.147 102.202 152.288 102.555C152.335 102.672 152.382 102.813 152.429 102.931C152.499 103.119 152.57 103.306 152.64 103.494C152.969 104.34 153.251 105.209 153.486 106.078C153.744 106.971 154.754 107.605 155.647 107.3C156.07 107.159 156.492 106.9 156.704 106.501C156.939 106.055 156.962 105.632 156.892 105.139C156.892 105.115 156.821 104.669 156.868 104.951C156.915 105.233 156.845 104.81 156.845 104.786C156.821 104.622 156.798 104.457 156.774 104.293C156.727 103.917 156.68 103.541 156.657 103.165C156.61 102.578 156.563 101.991 156.539 101.404C156.516 100.488 156.539 99.5481 156.516 98.632C156.516 97.4811 156.445 96.3536 156.328 95.2026C156.234 94.3335 156.117 93.4644 155.999 92.5953C155.929 92.0785 155.858 91.5618 155.788 91.0215C155.764 90.9276 155.764 90.8336 155.741 90.7396C155.67 90.2934 155.788 91.0215 155.741 90.7396C155.717 90.4813 155.67 90.2464 155.647 89.988C155.435 88.3203 155.247 86.629 155.2 84.9378C155.177 84.0687 155.177 83.2231 155.247 82.354C155.271 81.9547 155.294 81.5318 155.365 81.1325C155.271 81.6258 155.412 80.8977 155.412 80.8037C155.459 80.5688 155.482 80.3574 155.529 80.1225C155.67 79.3943 155.882 78.6897 156.117 78.0085C156.211 77.7031 156.328 77.3977 156.445 77.0924C156.492 76.9514 156.539 76.8105 156.61 76.6931C156.633 76.5991 156.68 76.5286 156.704 76.4347C156.868 76.0588 156.633 76.6226 156.704 76.4582C157.268 75.2132 157.902 74.0153 158.653 72.8878C158.865 72.5824 159.17 72.2536 159.358 71.9247C159.335 71.9482 159.1 72.2536 159.288 72.0187C159.358 71.9247 159.429 71.8543 159.499 71.7603C159.616 71.6194 159.734 71.4784 159.851 71.3375C160.345 70.7738 160.861 70.2335 161.425 69.7167C161.707 69.4584 162.012 69.2 162.318 68.9416C162.553 68.7537 162.247 69.0121 162.224 69.0121C162.318 68.9651 162.388 68.8711 162.482 68.8242C162.647 68.7067 162.811 68.5893 162.952 68.4718C163.586 68.0255 164.244 67.6497 164.949 67.2974C165.606 66.9685 165.982 66.0054 165.747 65.3008C165.489 64.5256 164.855 64.0558 164.056 64.0089C163.234 63.9619 162.412 63.8914 161.59 63.7975C161.402 63.774 161.214 63.7505 161.026 63.727C160.932 63.727 160.838 63.68 160.744 63.68C161.214 63.6565 160.908 63.7035 160.767 63.68C160.345 63.6095 159.922 63.5625 159.522 63.4921C157.925 63.2102 156.351 62.8579 154.825 62.4116C154.049 62.1767 153.298 61.9418 152.546 61.6599C152.194 61.519 151.841 61.4015 151.466 61.2606C151.419 61.2371 150.925 61.0492 150.925 61.0492C150.996 61.0727 151.066 61.1197 151.137 61.1432C151.066 61.1197 150.996 61.0727 150.925 61.0492C150.831 61.0022 150.714 60.9552 150.62 60.9083C149.14 60.2506 147.731 59.4989 146.369 58.6298C145.687 58.1835 145.006 57.7372 144.372 57.2439C144.301 57.197 144.254 57.15 144.184 57.103C144.583 57.3849 144.254 57.1735 144.184 57.103C144.043 56.9856 143.879 56.8681 143.738 56.7507C143.409 56.4923 143.103 56.2104 142.798 55.9285C142.211 55.3883 141.624 54.8245 141.083 54.2373C140.52 53.6266 140.026 52.9689 139.486 52.3582C139.815 52.734 139.416 52.2642 139.345 52.1468C139.228 51.9823 139.11 51.8414 138.993 51.677C138.735 51.3246 138.5 50.9723 138.265 50.62C137.795 49.9153 137.372 49.1871 136.949 48.4589C136.127 47.0026 135.399 45.4993 134.718 43.949C134.694 43.8785 134.647 43.8081 134.624 43.7376C134.6 43.6671 134.553 43.5967 134.53 43.5262C134.624 43.7611 134.647 43.7846 134.577 43.6202C134.483 43.4087 134.389 43.1738 134.295 42.9624C134.131 42.5396 133.966 42.1168 133.802 41.694C133.473 40.8249 133.144 39.9323 132.839 39.0632C132.204 37.2545 131.617 35.4459 131.03 33.6372C130.748 32.7681 129.785 32.1104 128.869 32.4158C127.929 32.6742 127.272 33.6137 127.577 34.5533C129.691 41.1538 131.899 47.9657 136.01 53.6266C138.1 56.5158 140.614 59.0056 143.573 61.0492C146.369 62.9753 149.493 64.4317 152.711 65.4887C156.375 66.6866 160.204 67.3443 164.056 67.5557C163.751 66.4517 163.469 65.3712 163.163 64.2672C157.831 66.9215 154.12 72.2066 152.499 77.8675C151.513 81.3205 151.56 84.9143 151.959 88.4377C152.076 89.4243 152.194 90.3873 152.335 91.3739C152.358 91.6088 152.405 91.8201 152.429 92.055C152.452 92.149 152.452 92.243 152.476 92.3369C152.546 92.7832 152.429 92.0551 152.476 92.3604C152.546 92.8067 152.593 93.2765 152.664 93.7228C152.828 95.1087 152.992 96.4945 153.016 97.8804C153.039 98.9374 153.016 99.9944 153.039 101.051C153.086 102.719 153.274 104.387 153.509 106.055C154.637 105.749 155.764 105.42 156.915 105.115C155.106 98.726 151.348 92.9477 146.415 88.5552C141.483 84.1392 135.376 80.9211 128.892 79.5822C125.275 78.8306 121.517 78.5957 117.853 79.0655C118.158 80.1695 118.44 81.25 118.745 82.354C124.523 79.1829 128.423 73.475 130.466 67.3208C131.523 64.1263 131.993 60.8143 132.251 57.4553C132.557 53.744 132.651 50.0327 132.51 46.3214C132.345 42.0699 131.899 37.8183 131.03 33.6607C130.842 32.7681 129.738 32.1574 128.869 32.4393C127.859 32.6976 127.389 33.5902 127.577 34.5533Z" fill="#231F20"/>
</svg>
