<svg width="182" height="171" viewBox="0 0 182 171" fill="none" xmlns="http://www.w3.org/2000/svg">
<path d="M134 101.553C134 136.041 96.9051 164 62.4274 164C27.9497 164 0 136.041 0 101.553C0 67.0643 12.3508 36 46.8285 36C81.3062 36 134 67.0643 134 101.553Z" fill="#FFCB3C"/>
<mask id="mask0_179_3042" style="mask-type:alpha" maskUnits="userSpaceOnUse" x="8" y="0" width="153" height="171">
<path d="M130.655 108.706C130.655 143.11 103.198 171 69.3276 171C35.4573 171 8 143.11 8 108.706C8 74.3013 115.804 2.71298e-06 149.674 2.71298e-06C183.544 2.71298e-06 130.655 74.3013 130.655 108.706Z" fill="#FFCB3C"/>
</mask>
<g mask="url(#mask0_179_3042)">
<path fill-rule="evenodd" clip-rule="evenodd" d="M62.5135 98.8766C58.7211 97.2651 54.4365 96.9442 49.7137 98.3441C33.5868 103.124 26.983 115.853 26.0998 131.016C24.8626 152.328 35.36 178.564 44.7617 191.6C45.8607 193.123 47.9709 193.454 49.4744 192.344C50.9745 191.231 51.3048 189.094 50.2059 187.571C41.4884 175.484 31.6822 151.181 32.8317 131.419C33.5396 119.195 38.6097 108.751 51.6083 104.896C54.4197 104.063 56.9782 104.179 59.2806 104.999C58.5322 106.518 57.8175 108.041 57.14 109.564C54.433 115.662 50.3879 132.593 51.8981 145.042C53.0948 154.892 57.6894 161.956 67.1687 161.697C72.596 161.55 76.6009 158.228 79.0044 152.782C81.9675 146.066 82.3721 135.792 80.2888 125.942C78.5595 117.751 75.1277 109.891 70.3139 104.606C69.6397 103.865 68.9385 103.172 68.2138 102.53C84.017 74.1535 112.539 47.8221 141.823 36.606C143.563 35.9402 144.439 33.9701 143.782 32.2049C143.124 30.4431 141.176 29.5554 139.436 30.2212C108.892 41.9187 79.1191 69.2982 62.5135 98.8766ZM64.944 108.802C64.3709 109.987 63.8179 111.175 63.2921 112.363C60.8616 117.836 57.2345 133.034 58.5896 144.209C59.3076 150.122 61.2999 155.025 66.9901 154.872C69.7813 154.797 71.6151 152.796 72.8489 149.996C74.4872 146.285 75.0705 141.252 74.8109 135.895C74.403 127.584 71.9253 118.489 67.5633 112.056C66.7576 110.868 65.8845 109.772 64.944 108.802Z" fill="#35312B"/>
<path fill-rule="evenodd" clip-rule="evenodd" d="M119.668 79.1709C122.288 63.674 132.306 47.1857 143.07 35.7598C144.35 34.4005 144.303 32.2441 142.963 30.9428C141.623 29.6449 139.494 29.6926 138.214 31.0518C126.583 43.401 115.876 61.2757 113.048 78.0194C112.736 79.8726 113.966 81.6339 115.793 81.9507C117.62 82.2675 119.356 81.0241 119.668 79.1709Z" fill="#35312B"/>
<path fill-rule="evenodd" clip-rule="evenodd" d="M137.94 30.4445C126.793 36.8198 109.695 37.6535 97.2321 34.4201C95.4222 33.9524 93.5751 35.0438 93.1083 36.8537C92.6414 38.6636 93.7274 40.5142 95.5373 40.9853C109.55 44.6152 128.762 43.5002 141.295 36.3318C142.916 35.4065 143.481 33.3322 142.554 31.7087C141.627 30.0852 139.56 29.5192 137.94 30.4445Z" fill="#35312B"/>
</g>
<path fill-rule="evenodd" clip-rule="evenodd" d="M166.675 14.8798C166.643 14.1898 166.649 13.5181 166.681 12.8875C166.791 10.9911 168.535 10.9976 168.67 11.0002C168.954 11.0067 170.22 11.0877 170.524 12.5663C170.543 12.6544 170.588 13.2928 170.601 13.5389C170.627 14.0638 170.64 14.5795 170.569 15.0972C170.634 15.9752 170.776 16.8787 171.047 17.7286C171.441 18.9833 172.08 20.1414 173.236 20.7583C175.303 21.868 178.021 21.823 180.294 22.105C181.244 22.2225 181.967 23.0228 181.999 23.989C182.025 24.9558 181.354 25.7992 180.411 25.9748C177.569 26.5062 174.302 29.1181 172.222 31.2214C171.583 31.8677 170.866 33.407 170.065 34.3927C169.419 35.1826 168.703 35.712 168.025 35.9222C167.76 36.0038 166.294 36.3015 165.635 34.7674C165.454 34.3366 164.815 32.0805 164.757 31.8233C164.408 30.3493 163.911 29.0325 162.936 27.8601C162.09 26.8437 161.063 25.9559 159.83 25.4637C159.332 25.2652 158.816 25.1144 158.299 24.9591C158.118 24.9369 157.608 24.8716 157.427 24.8096C157.059 24.6855 156.788 24.491 156.594 24.2971C156.226 23.9303 156.039 23.4922 156.006 22.9935C155.981 22.6645 156.026 22.2741 156.258 21.8413C156.433 21.5338 156.827 21.071 157.537 20.7707C158.28 20.4567 159.875 20.1583 160.159 20.0807C162.135 19.5428 164.072 18.7248 165.59 17.3069C166.346 16.598 166.52 15.8335 166.675 14.8798ZM167.941 20.4312C168.703 22.028 169.839 23.3721 171.421 24.2188C172.074 24.5707 172.784 24.8377 173.52 25.0452C172.003 26.1132 170.595 27.3274 169.478 28.4528C169.116 28.8191 168.722 29.4118 168.302 30.0627C167.811 28.3249 167.088 26.7641 165.9 25.3357C165.196 24.4936 164.402 23.724 163.517 23.0823C165.118 22.4412 166.636 21.5834 167.941 20.4312Z" fill="#35312B"/>
</svg>
