<svg version="1.1" id="Layer_1" xmlns="http://www.w3.org/2000/svg" xmlns:xlink="http://www.w3.org/1999/xlink" x="0px"
	y="0px" width="100%" viewBox="0 0 1250 500" enable-background="new 0 0 1250 500" xml:space="preserve">
	<path fill="#A0E1E1" opacity="1.000000" stroke="none" d="
M1180.000000,501.000000 
	C786.666687,501.000000 393.833374,501.000000 1.000053,501.000000 
	C1.000035,334.333374 1.000035,167.666733 1.000018,1.000075 
	C417.666626,1.000050 834.333252,1.000050 1251.000000,1.000025 
	C1251.000000,167.666595 1251.000000,334.333191 1251.000000,500.999878 
	C1227.500000,501.000000 1204.000000,501.000000 1180.000000,501.000000 
M141.505539,183.995056 
	C136.586517,183.995056 131.667480,183.995056 125.323578,183.995056 
	C138.438736,189.562683 143.324722,198.524796 143.253479,211.224365 
	C143.007675,255.042114 143.158875,298.862122 143.158875,342.681244 
	C143.158875,344.408905 143.158875,346.136597 143.158875,347.864258 
	C143.652893,348.123077 144.146912,348.381897 144.640945,348.640717 
	C145.113510,347.756836 145.432755,346.736206 146.081192,346.009216 
	C159.965042,330.443542 166.975891,312.216766 167.055298,291.393768 
	C167.151245,266.235626 167.077347,241.076828 167.080399,215.918320 
	C167.080551,214.585922 166.660034,212.997009 167.235825,211.981216 
	C168.101685,210.453659 169.832794,208.159088 170.911331,208.304352 
	C172.526978,208.522003 174.258301,210.346359 175.244705,211.922729 
	C175.928375,213.015259 175.471802,214.840652 175.472092,216.338608 
	C175.478149,247.661789 175.476685,278.984985 175.476700,310.308167 
	C175.476700,312.082397 175.476700,313.856598 175.476700,316.437988 
	C176.836197,315.394928 177.534088,315.013733 178.032364,314.454590 
	C190.384033,300.594330 198.055695,284.517029 198.905777,265.911133 
	C199.665512,249.282547 199.210648,232.599014 199.337158,215.940094 
	C199.350906,214.129257 199.289963,212.160614 199.969391,210.565826 
	C200.444336,209.450974 202.153198,208.148621 203.256104,208.196381 
	C204.611282,208.255081 206.473618,209.336533 207.090378,210.513641 
	C207.874512,212.010223 207.798553,214.045837 207.802017,215.849594 
	C207.842422,236.842712 207.827881,257.835938 207.827911,278.829132 
	C207.827911,280.519135 207.827911,282.209137 207.827911,285.114136 
	C214.615265,278.296112 220.667709,272.801270 225.961182,266.653015 
	C228.623749,263.560455 231.023712,259.454437 231.636887,255.510468 
	C236.169266,226.357574 256.999695,208.052216 286.457458,207.937683 
	C291.853027,207.916702 297.248718,207.934692 304.038544,207.934692 
	C296.530182,200.517899 289.963043,194.207809 283.620117,187.679916 
	C281.012268,184.996017 278.284760,183.895248 274.460419,183.907227 
	C230.475098,184.044983 186.489197,183.995056 141.505539,183.995056 
M380.162262,289.821198 
	C381.972168,289.553284 383.790375,289.331940 385.590668,289.010376 
	C405.464905,285.460571 419.620392,270.072327 420.955231,250.587158 
	C422.585449,226.790283 411.935577,209.275589 391.639557,203.004105 
	C376.045135,198.185425 360.019958,201.037811 344.105896,200.219421 
	C344.105896,230.505371 344.105896,260.058441 344.105896,289.896332 
	C355.997162,289.896332 367.613678,289.896332 380.162262,289.821198 
M628.236938,320.047119 
	C646.355225,318.077240 655.975464,307.588531 656.146118,289.313843 
	C656.281372,274.832855 656.174377,260.349609 656.174927,245.867386 
	C656.175110,241.087738 656.174927,236.308090 656.174927,231.380676 
	C650.581299,231.380676 645.526611,231.380676 640.368896,231.380676 
	C640.196838,234.013428 640.044861,236.338608 639.862854,239.123367 
	C627.250427,227.451706 611.468262,227.006409 600.494934,237.498444 
	C589.515076,247.996704 588.748413,269.333435 598.935547,280.897369 
	C609.403748,292.780396 625.110596,293.048859 639.586609,281.592255 
	C641.817139,294.282928 637.910156,303.308441 629.082275,305.858215 
	C619.675110,308.575348 612.553284,304.567474 608.665222,294.267242 
	C603.608765,294.267242 598.504761,294.267242 593.026855,294.267242 
	C594.035339,304.631653 598.021118,313.096313 607.883545,316.720581 
	C613.948730,318.949463 620.802795,319.031647 628.236938,320.047119 
M873.082947,274.496735 
	C873.082947,246.442139 873.082947,218.387558 873.082947,190.264877 
	C867.258911,190.264877 862.153015,190.264877 856.251709,190.264877 
	C856.251709,206.553543 856.251709,222.656143 856.251709,239.456573 
	C843.210449,227.516037 828.164795,226.968933 817.154785,237.334000 
	C806.118896,247.723572 804.837341,268.677765 814.512268,280.850037 
	C818.837036,286.291107 824.503845,289.676208 831.291565,290.813080 
	C840.920166,292.425751 849.321167,289.879944 856.113037,281.248840 
	C856.393555,284.871338 856.580505,287.285431 856.767883,289.704987 
	C862.313171,289.704987 867.548401,289.704987 873.082947,289.704987 
	C873.082947,284.768982 873.082947,280.132141 873.082947,274.496735 
M943.572510,280.055939 
	C944.765320,278.363678 945.958130,276.671448 947.341431,274.708954 
	C944.288147,273.724274 941.898804,273.035950 939.569397,272.183868 
	C935.723389,270.777100 932.765442,270.127869 929.235474,274.117004 
	C924.405273,279.575409 917.377502,279.823761 910.727661,277.319458 
	C905.028198,275.173126 902.566650,270.444519 902.178528,264.137207 
	C917.220398,264.137207 932.006104,264.137207 946.709961,264.137207 
	C950.316406,249.210098 941.806396,234.526337 927.337036,231.177460 
	C922.400391,230.034927 917.082214,229.829315 912.001343,230.160812 
	C899.062500,231.004974 888.685120,239.994690 885.994934,251.998856 
	C882.709290,266.659698 887.603760,279.695648 898.587402,286.627167 
	C909.497925,293.512573 932.776306,293.616852 943.572510,280.055939 
M1117.838745,281.311401 
	C1119.384644,279.256653 1120.930542,277.201935 1122.774902,274.750610 
	C1118.830322,273.476288 1115.673584,272.539642 1112.578247,271.431366 
	C1109.880737,270.465485 1107.958618,270.561920 1105.786621,273.109802 
	C1101.118408,278.585785 1094.730713,279.518158 1087.999756,278.005035 
	C1081.511108,276.546478 1077.777710,271.228210 1078.207764,264.044006 
	C1092.917114,264.044006 1107.661133,264.044006 1122.316650,264.044006 
	C1124.885132,248.335922 1117.636353,235.264771 1103.842041,231.508606 
	C1098.663452,230.098495 1092.953979,229.840866 1087.558105,230.183411 
	C1074.436157,231.016449 1064.370483,239.663925 1061.382812,251.808716 
	C1058.016235,265.493958 1062.599243,279.008636 1072.974609,285.992004 
	C1085.670654,294.537354 1105.992920,292.627655 1117.838745,281.311401 
M450.179779,231.487991 
	C435.529266,236.560349 428.920898,247.239029 429.985046,264.121399 
	C430.847076,277.797180 439.946198,288.486298 454.214203,290.464844 
	C461.069122,291.415405 468.488434,290.444397 475.314758,288.875549 
	C482.812042,287.152466 488.158813,281.782166 491.912323,274.636169 
	C489.423187,273.855255 487.327789,273.343994 485.347504,272.546875 
	C480.880157,270.748688 477.487030,270.229584 473.332184,274.626129 
	C468.458801,279.782990 461.285065,279.902466 454.707123,277.041168 
	C449.492218,274.772736 447.339111,270.245819 446.978668,264.081970 
	C462.108002,264.081970 476.962494,264.081970 491.731964,264.081970 
	C493.643005,247.399155 487.215607,235.091888 473.539856,231.783173 
	C466.376770,230.050140 458.495239,231.286606 450.179779,231.487991 
M965.692932,247.245804 
	C972.076355,245.693741 978.415771,243.113998 984.853882,242.837753 
	C993.835205,242.452408 997.118713,248.093430 994.821289,255.641098 
	C986.775696,255.289566 978.995056,253.998993 971.454224,254.845123 
	C960.414612,256.083832 954.501770,263.839447 955.187378,273.891052 
	C955.861145,283.767853 963.591431,290.666901 974.305847,291.180481 
	C982.108765,291.554504 988.919800,289.277039 994.901184,283.516632 
	C995.219543,286.051147 995.455383,287.928528 995.692505,289.816040 
	C1000.989136,289.816040 1005.940979,289.816040 1011.320435,289.816040 
	C1011.320435,276.500793 1011.330322,263.372803 1011.317200,250.244812 
	C1011.307068,240.049957 1006.953735,233.855255 997.186584,231.214188 
	C984.034546,227.657791 971.587646,230.038376 959.370422,236.618637 
	C961.353394,240.179123 963.200928,243.496292 965.692932,247.245804 
M692.587402,235.046951 
	C691.556641,236.166748 690.525879,237.286560 689.192932,238.734650 
	C689.026062,235.799561 688.898193,233.549789 688.776733,231.413361 
	C683.100891,231.413361 677.872498,231.413361 672.525818,231.413361 
	C672.525818,251.018143 672.525818,270.263489 672.525818,289.640930 
	C678.145508,289.640930 683.503540,289.640930 689.014160,289.640930 
	C689.014160,286.944336 689.013184,284.620453 689.014404,282.296570 
	C689.019592,272.471375 688.858826,262.642273 689.090088,252.822403 
	C689.242065,246.367661 694.057434,242.117523 700.530884,242.091995 
	C706.575989,242.068161 709.733704,245.341660 710.116943,252.373932 
	C710.343140,256.525696 710.256653,260.695831 710.265869,264.857788 
	C710.284119,273.131165 710.271301,281.404633 710.271301,289.723938 
	C716.309753,289.723938 721.714050,289.723938 727.382751,289.723938 
	C727.382751,276.310974 727.567444,263.181854 727.313599,250.061218 
	C727.160889,242.167297 724.591187,235.076370 716.638794,231.813202 
	C708.469543,228.461090 700.395508,228.738754 692.587402,235.046951 
M533.010925,274.465698 
	C531.096069,279.206299 527.098022,280.885376 521.205139,278.354401 
	C516.401123,276.291077 512.052307,273.167908 507.213867,270.346893 
	C504.895538,273.377502 502.334259,276.725708 499.752258,280.100952 
	C510.481476,290.119354 522.414612,294.260986 536.378296,290.977539 
	C544.160278,289.147644 548.593628,283.606476 549.563843,275.350677 
	C550.410828,268.143463 547.678223,262.885406 540.514099,259.123047 
	C535.820984,256.658356 530.820923,254.781357 525.977295,252.599030 
	C522.556824,251.057938 518.166138,250.125534 519.198975,244.901382 
	C519.778015,241.972672 524.709229,241.095978 529.870728,242.670639 
	C530.348145,242.816299 530.876160,242.868256 531.299561,243.107376 
	C534.704041,245.030380 538.088989,246.987854 541.657166,249.036545 
	C543.864136,245.889587 546.046997,242.777069 548.423157,239.388779 
	C539.474182,231.454788 529.397827,228.235229 517.880493,230.593552 
	C508.910797,232.430206 504.136627,237.452866 503.401764,244.866821 
	C502.653442,252.416199 506.218292,258.020233 514.597534,261.929138 
	C518.651672,263.820404 523.134277,264.896912 526.962708,267.130890 
	C529.421387,268.565582 531.041687,271.436920 533.010925,274.465698 
M1025.444702,245.083969 
	C1028.587402,244.551315 1029.398682,245.991943 1029.336060,248.985321 
	C1029.162231,257.300873 1029.276489,265.622467 1029.276733,273.941681 
	C1029.276978,279.210968 1029.276733,284.480255 1029.276733,289.856384 
	C1034.916626,289.856384 1039.880249,289.856384 1045.382568,289.856384 
	C1045.382568,274.984619 1045.382568,260.258087 1045.382568,245.073654 
	C1049.001099,245.073654 1052.095703,245.073654 1055.401123,245.073654 
	C1055.401123,240.215317 1055.401123,235.827866 1055.401123,231.007446 
	C1051.982178,231.007446 1048.880737,231.007446 1045.214600,231.007446 
	C1045.214600,224.035309 1045.214600,217.486710 1045.214600,211.102051 
	C1039.586548,211.102051 1034.542114,211.102051 1029.059082,211.102051 
	C1029.059082,217.932617 1029.059082,224.341614 1029.059082,231.269775 
	C1025.546997,231.269775 1022.477783,231.269775 1019.406616,231.269775 
	C1019.406616,236.066620 1019.406616,240.326050 1019.406616,245.083618 
	C1021.265686,245.083618 1022.888306,245.083618 1025.444702,245.083969 
M794.167725,273.498413 
	C794.167725,249.255661 794.167725,225.012924 794.167725,200.563995 
	C787.818787,200.563995 782.077576,200.563995 776.219238,200.563995 
	C776.219238,230.489777 776.219238,260.143433 776.219238,289.700867 
	C782.362488,289.700867 788.114624,289.700867 794.167725,289.700867 
	C794.167725,284.434418 794.167725,279.465729 794.167725,273.498413 
M562.066711,252.500153 
	C562.066711,264.915253 562.066711,277.330353 562.066711,289.664551 
	C567.818665,289.664551 572.892639,289.664551 577.919006,289.664551 
	C577.919006,270.070923 577.919006,250.818741 577.919006,231.354218 
	C572.610779,231.354218 567.557983,231.354218 562.066711,231.354218 
	C562.066711,238.258011 562.066711,244.879135 562.066711,252.500153 
M575.057678,200.112350 
	C570.868286,198.167908 566.566345,198.292938 563.571533,201.723526 
	C561.742920,203.818207 560.466125,207.334152 560.688416,210.069824 
	C561.066406,214.722427 564.740906,217.191925 569.307434,217.628830 
	C573.912415,218.069443 577.593079,216.059830 579.383789,211.803818 
	C581.305298,207.237000 579.772644,203.359772 575.057678,200.112350 
z" />
	<path fill="#22251F" opacity="1.000000" stroke="none" d="
M142.004486,183.995056 
	C186.489197,183.995056 230.475098,184.044983 274.460419,183.907227 
	C278.284760,183.895248 281.012268,184.996017 283.620117,187.679916 
	C289.963043,194.207809 296.530182,200.517899 304.038544,207.934692 
	C297.248718,207.934692 291.853027,207.916702 286.457458,207.937683 
	C256.999695,208.052216 236.169266,226.357574 231.636887,255.510468 
	C231.023712,259.454437 228.623749,263.560455 225.961182,266.653015 
	C220.667709,272.801270 214.615265,278.296112 207.827911,285.114136 
	C207.827911,282.209137 207.827911,280.519135 207.827911,278.829132 
	C207.827881,257.835938 207.842422,236.842712 207.802017,215.849594 
	C207.798553,214.045837 207.874512,212.010223 207.090378,210.513641 
	C206.473618,209.336533 204.611282,208.255081 203.256104,208.196381 
	C202.153198,208.148621 200.444336,209.450974 199.969391,210.565826 
	C199.289963,212.160614 199.350906,214.129257 199.337158,215.940094 
	C199.210648,232.599014 199.665512,249.282547 198.905777,265.911133 
	C198.055695,284.517029 190.384033,300.594330 178.032364,314.454590 
	C177.534088,315.013733 176.836197,315.394928 175.476700,316.437988 
	C175.476700,313.856598 175.476700,312.082397 175.476700,310.308167 
	C175.476685,278.984985 175.478149,247.661789 175.472092,216.338608 
	C175.471802,214.840652 175.928375,213.015259 175.244705,211.922729 
	C174.258301,210.346359 172.526978,208.522003 170.911331,208.304352 
	C169.832794,208.159088 168.101685,210.453659 167.235825,211.981216 
	C166.660034,212.997009 167.080551,214.585922 167.080399,215.918320 
	C167.077347,241.076828 167.151245,266.235626 167.055298,291.393768 
	C166.975891,312.216766 159.965042,330.443542 146.081192,346.009216 
	C145.432755,346.736206 145.113510,347.756836 144.640945,348.640717 
	C144.146912,348.381897 143.652893,348.123077 143.158875,347.864258 
	C143.158875,346.136597 143.158875,344.408905 143.158875,342.681244 
	C143.158875,298.862122 143.007675,255.042114 143.253479,211.224365 
	C143.324722,198.524796 138.438736,189.562683 125.323578,183.995056 
	C131.667480,183.995056 136.586517,183.995056 142.004486,183.995056 
z" />
	<path fill="#22251F" opacity="1.000000" stroke="none" d="
M379.696228,289.858765 
	C367.613678,289.896332 355.997162,289.896332 344.105896,289.896332 
	C344.105896,260.058441 344.105896,230.505371 344.105896,200.219421 
	C360.019958,201.037811 376.045135,198.185425 391.639557,203.004105 
	C411.935577,209.275589 422.585449,226.790283 420.955231,250.587158 
	C419.620392,270.072327 405.464905,285.460571 385.590668,289.010376 
	C383.790375,289.331940 381.972168,289.553284 379.696228,289.858765 
M362.292389,221.734985 
	C362.292389,238.806229 362.292389,255.877487 362.292389,273.296814 
	C366.717224,273.296814 370.365356,273.360596 374.010651,273.286377 
	C396.430023,272.830078 408.742157,253.753876 400.171387,232.855728 
	C397.197906,225.605423 392.187256,220.336029 384.489807,218.832870 
	C378.027863,217.570969 371.325378,217.438171 364.714783,217.180389 
	C363.955627,217.150787 363.102539,219.530441 362.292389,221.734985 
z" />
	<path fill="#232620" opacity="1.000000" stroke="none" d="
M627.769775,320.062439 
	C620.802795,319.031647 613.948730,318.949463 607.883545,316.720581 
	C598.021118,313.096313 594.035339,304.631653 593.026855,294.267242 
	C598.504761,294.267242 603.608765,294.267242 608.665222,294.267242 
	C612.553284,304.567474 619.675110,308.575348 629.082275,305.858215 
	C637.910156,303.308441 641.817139,294.282928 639.586609,281.592255 
	C625.110596,293.048859 609.403748,292.780396 598.935547,280.897369 
	C588.748413,269.333435 589.515076,247.996704 600.494934,237.498444 
	C611.468262,227.006409 627.250427,227.451706 639.862854,239.123367 
	C640.044861,236.338608 640.196838,234.013428 640.368896,231.380676 
	C645.526611,231.380676 650.581299,231.380676 656.174927,231.380676 
	C656.174927,236.308090 656.175110,241.087738 656.174927,245.867386 
	C656.174377,260.349609 656.281372,274.832855 656.146118,289.313843 
	C655.975464,307.588531 646.355225,318.077240 627.769775,320.062439 
M609.255493,256.173218 
	C609.209717,258.330627 608.928833,260.513672 609.161072,262.640717 
	C609.928162,269.667542 614.660706,274.750641 621.348450,276.002838 
	C628.644409,277.368927 635.166260,274.650543 638.276367,268.415497 
	C641.294556,262.364655 641.233887,255.996155 637.505005,250.331268 
	C634.047302,245.078308 628.741638,242.841354 622.351196,243.827316 
	C615.567444,244.873962 611.259460,248.721863 609.255493,256.173218 
z" />
	<path fill="#232721" opacity="1.000000" stroke="none" d="
M873.082947,274.996033 
	C873.082947,280.132141 873.082947,284.768982 873.082947,289.704987 
	C867.548401,289.704987 862.313171,289.704987 856.767883,289.704987 
	C856.580505,287.285431 856.393555,284.871338 856.113037,281.248840 
	C849.321167,289.879944 840.920166,292.425751 831.291565,290.813080 
	C824.503845,289.676208 818.837036,286.291107 814.512268,280.850037 
	C804.837341,268.677765 806.118896,247.723572 817.154785,237.334000 
	C828.164795,226.968933 843.210449,227.516037 856.251709,239.456573 
	C856.251709,222.656143 856.251709,206.553543 856.251709,190.264877 
	C862.153015,190.264877 867.258911,190.264877 873.082947,190.264877 
	C873.082947,218.387558 873.082947,246.442139 873.082947,274.996033 
M853.895081,250.861176 
	C848.013367,243.356934 840.231995,241.503250 832.909973,245.862183 
	C825.954956,250.002655 823.211487,259.605164 826.604187,267.932434 
	C829.517395,275.082672 837.502930,279.014984 845.052734,277.017242 
	C855.007996,274.383026 859.246643,262.617798 853.895081,250.861176 
z" />
	<path fill="#232620" opacity="1.000000" stroke="none" d="
M943.346863,280.331726 
	C932.776306,293.616852 909.497925,293.512573 898.587402,286.627167 
	C887.603760,279.695648 882.709290,266.659698 885.994934,251.998856 
	C888.685120,239.994690 899.062500,231.004974 912.001343,230.160812 
	C917.082214,229.829315 922.400391,230.034927 927.337036,231.177460 
	C941.806396,234.526337 950.316406,249.210098 946.709961,264.137207 
	C932.006104,264.137207 917.220398,264.137207 902.178528,264.137207 
	C902.566650,270.444519 905.028198,275.173126 910.727661,277.319458 
	C917.377502,279.823761 924.405273,279.575409 929.235474,274.117004 
	C932.765442,270.127869 935.723389,270.777100 939.569397,272.183868 
	C941.898804,273.035950 944.288147,273.724274 947.341431,274.708954 
	C945.958130,276.671448 944.765320,278.363678 943.346863,280.331726 
M927.065247,246.524765 
	C922.625000,241.734390 916.745178,240.228073 910.957642,242.398331 
	C906.304993,244.143005 903.313293,248.470139 903.116760,253.813690 
	C911.855652,253.813690 920.590637,253.813690 930.046204,253.813690 
	C929.100708,251.317764 928.306702,249.221741 927.065247,246.524765 
z" />
	<path fill="#232620" opacity="1.000000" stroke="none" d="
M1117.591187,281.566956 
	C1105.992920,292.627655 1085.670654,294.537354 1072.974609,285.992004 
	C1062.599243,279.008636 1058.016235,265.493958 1061.382812,251.808716 
	C1064.370483,239.663925 1074.436157,231.016449 1087.558105,230.183411 
	C1092.953979,229.840866 1098.663452,230.098495 1103.842041,231.508606 
	C1117.636353,235.264771 1124.885132,248.335922 1122.316650,264.044006 
	C1107.661133,264.044006 1092.917114,264.044006 1078.207764,264.044006 
	C1077.777710,271.228210 1081.511108,276.546478 1087.999756,278.005035 
	C1094.730713,279.518158 1101.118408,278.585785 1105.786621,273.109802 
	C1107.958618,270.561920 1109.880737,270.465485 1112.578247,271.431366 
	C1115.673584,272.539642 1118.830322,273.476288 1122.774902,274.750610 
	C1120.930542,277.201935 1119.384644,279.256653 1117.591187,281.566956 
M1098.115845,242.875992 
	C1087.610352,239.255600 1079.619507,243.591919 1078.227661,253.999603 
	C1082.713745,253.999603 1087.156128,253.999588 1091.598511,253.999588 
	C1095.998657,253.999588 1100.398804,253.999603 1104.798950,253.999603 
	C1105.185913,253.521500 1105.572876,253.043381 1105.959839,252.565277 
	C1103.587036,249.449753 1101.214111,246.334229 1098.115845,242.875992 
z" />
	<path fill="#232520" opacity="1.000000" stroke="none" d="
M450.558960,231.334991 
	C458.495239,231.286606 466.376770,230.050140 473.539856,231.783173 
	C487.215607,235.091888 493.643005,247.399155 491.731964,264.081970 
	C476.962494,264.081970 462.108002,264.081970 446.978668,264.081970 
	C447.339111,270.245819 449.492218,274.772736 454.707123,277.041168 
	C461.285065,279.902466 468.458801,279.782990 473.332184,274.626129 
	C477.487030,270.229584 480.880157,270.748688 485.347504,272.546875 
	C487.327789,273.343994 489.423187,273.855255 491.912323,274.636169 
	C488.158813,281.782166 482.812042,287.152466 475.314758,288.875549 
	C468.488434,290.444397 461.069122,291.415405 454.214203,290.464844 
	C439.946198,288.486298 430.847076,277.797180 429.985046,264.121399 
	C428.920898,247.239029 435.529266,236.560349 450.558960,231.334991 
M474.181274,252.796646 
	C472.735016,245.356049 468.266815,241.438629 461.294617,241.498535 
	C453.481384,241.565674 448.872894,245.654190 447.571625,253.655884 
	C456.357422,253.655884 465.146240,253.655884 474.181274,252.796646 
z" />
	<path fill="#232620" opacity="1.000000" stroke="none" d="
M965.370667,247.029633 
	C963.200928,243.496292 961.353394,240.179123 959.370422,236.618637 
	C971.587646,230.038376 984.034546,227.657791 997.186584,231.214188 
	C1006.953735,233.855255 1011.307068,240.049957 1011.317200,250.244812 
	C1011.330322,263.372803 1011.320435,276.500793 1011.320435,289.816040 
	C1005.940979,289.816040 1000.989136,289.816040 995.692505,289.816040 
	C995.455383,287.928528 995.219543,286.051147 994.901184,283.516632 
	C988.919800,289.277039 982.108765,291.554504 974.305847,291.180481 
	C963.591431,290.666901 955.861145,283.767853 955.187378,273.891052 
	C954.501770,263.839447 960.414612,256.083832 971.454224,254.845123 
	C978.995056,253.998993 986.775696,255.289566 994.821289,255.641098 
	C997.118713,248.093430 993.835205,242.452408 984.853882,242.837753 
	C978.415771,243.113998 972.076355,245.693741 965.370667,247.029633 
M989.732117,264.496796 
	C985.792419,264.429749 981.634155,263.570831 977.990540,264.576447 
	C975.596924,265.237122 973.035828,268.280792 972.178650,270.809418 
	C970.928223,274.498383 973.299377,277.436707 976.874451,279.010986 
	C983.038086,281.725128 991.253601,278.552490 994.140564,272.394043 
	C996.378845,267.619263 995.763611,266.308258 989.732117,264.496796 
z" />
	<path fill="#252923" opacity="1.000000" stroke="none" d="
M692.871704,234.825043 
	C700.395508,228.738754 708.469543,228.461090 716.638794,231.813202 
	C724.591187,235.076370 727.160889,242.167297 727.313599,250.061218 
	C727.567444,263.181854 727.382751,276.310974 727.382751,289.723938 
	C721.714050,289.723938 716.309753,289.723938 710.271301,289.723938 
	C710.271301,281.404633 710.284119,273.131165 710.265869,264.857788 
	C710.256653,260.695831 710.343140,256.525696 710.116943,252.373932 
	C709.733704,245.341660 706.575989,242.068161 700.530884,242.091995 
	C694.057434,242.117523 689.242065,246.367661 689.090088,252.822403 
	C688.858826,262.642273 689.019592,272.471375 689.014404,282.296570 
	C689.013184,284.620453 689.014160,286.944336 689.014160,289.640930 
	C683.503540,289.640930 678.145508,289.640930 672.525818,289.640930 
	C672.525818,270.263489 672.525818,251.018143 672.525818,231.413361 
	C677.872498,231.413361 683.100891,231.413361 688.776733,231.413361 
	C688.898193,233.549789 689.026062,235.799561 689.192932,238.734650 
	C690.525879,237.286560 691.556641,236.166748 692.871704,234.825043 
z" />
	<path fill="#232721" opacity="1.000000" stroke="none" d="
M533.024353,274.065002 
	C531.041687,271.436920 529.421387,268.565582 526.962708,267.130890 
	C523.134277,264.896912 518.651672,263.820404 514.597534,261.929138 
	C506.218292,258.020233 502.653442,252.416199 503.401764,244.866821 
	C504.136627,237.452866 508.910797,232.430206 517.880493,230.593552 
	C529.397827,228.235229 539.474182,231.454788 548.423157,239.388779 
	C546.046997,242.777069 543.864136,245.889587 541.657166,249.036545 
	C538.088989,246.987854 534.704041,245.030380 531.299561,243.107376 
	C530.876160,242.868256 530.348145,242.816299 529.870728,242.670639 
	C524.709229,241.095978 519.778015,241.972672 519.198975,244.901382 
	C518.166138,250.125534 522.556824,251.057938 525.977295,252.599030 
	C530.820923,254.781357 535.820984,256.658356 540.514099,259.123047 
	C547.678223,262.885406 550.410828,268.143463 549.563843,275.350677 
	C548.593628,283.606476 544.160278,289.147644 536.378296,290.977539 
	C522.414612,294.260986 510.481476,290.119354 499.752258,280.100952 
	C502.334259,276.725708 504.895538,273.377502 507.213867,270.346893 
	C512.052307,273.167908 516.401123,276.291077 521.205139,278.354401 
	C527.098022,280.885376 531.096069,279.206299 533.024353,274.065002 
z" />
	<path fill="#242721" opacity="1.000000" stroke="none" d="
M1024.977783,245.083801 
	C1022.888306,245.083618 1021.265686,245.083618 1019.406616,245.083618 
	C1019.406616,240.326050 1019.406616,236.066620 1019.406616,231.269775 
	C1022.477783,231.269775 1025.546997,231.269775 1029.059082,231.269775 
	C1029.059082,224.341614 1029.059082,217.932617 1029.059082,211.102051 
	C1034.542114,211.102051 1039.586548,211.102051 1045.214600,211.102051 
	C1045.214600,217.486710 1045.214600,224.035309 1045.214600,231.007446 
	C1048.880737,231.007446 1051.982178,231.007446 1055.401123,231.007446 
	C1055.401123,235.827866 1055.401123,240.215317 1055.401123,245.073654 
	C1052.095703,245.073654 1049.001099,245.073654 1045.382568,245.073654 
	C1045.382568,260.258087 1045.382568,274.984619 1045.382568,289.856384 
	C1039.880249,289.856384 1034.916626,289.856384 1029.276733,289.856384 
	C1029.276733,284.480255 1029.276978,279.210968 1029.276733,273.941681 
	C1029.276489,265.622467 1029.162231,257.300873 1029.336060,248.985321 
	C1029.398682,245.991943 1028.587402,244.551315 1024.977783,245.083801 
z" />
	<path fill="#22241E" opacity="1.000000" stroke="none" d="
M794.167725,273.997742 
	C794.167725,279.465729 794.167725,284.434418 794.167725,289.700867 
	C788.114624,289.700867 782.362488,289.700867 776.219238,289.700867 
	C776.219238,260.143433 776.219238,230.489777 776.219238,200.563995 
	C782.077576,200.563995 787.818787,200.563995 794.167725,200.563995 
	C794.167725,225.012924 794.167725,249.255661 794.167725,273.997742 
z" />
	<path fill="#22251F" opacity="1.000000" stroke="none" d="
M562.066711,252.000198 
	C562.066711,244.879135 562.066711,238.258011 562.066711,231.354218 
	C567.557983,231.354218 572.610779,231.354218 577.919006,231.354218 
	C577.919006,250.818741 577.919006,270.070923 577.919006,289.664551 
	C572.892639,289.664551 567.818665,289.664551 562.066711,289.664551 
	C562.066711,277.330353 562.066711,264.915253 562.066711,252.000198 
z" />
	<path fill="#252923" opacity="1.000000" stroke="none" d="
M575.399963,200.303253 
	C579.772644,203.359772 581.305298,207.237000 579.383789,211.803818 
	C577.593079,216.059830 573.912415,218.069443 569.307434,217.628830 
	C564.740906,217.191925 561.066406,214.722427 560.688416,210.069824 
	C560.466125,207.334152 561.742920,203.818207 563.571533,201.723526 
	C566.566345,198.292938 570.868286,198.167908 575.399963,200.303253 
z" />
	<path fill="#9EDEDE" opacity="1.000000" stroke="none" d="
M362.292664,221.264008 
	C363.102539,219.530441 363.955627,217.150787 364.714783,217.180389 
	C371.325378,217.438171 378.027863,217.570969 384.489807,218.832870 
	C392.187256,220.336029 397.197906,225.605423 400.171387,232.855728 
	C408.742157,253.753876 396.430023,272.830078 374.010651,273.286377 
	C370.365356,273.360596 366.717224,273.296814 362.292389,273.296814 
	C362.292389,255.877487 362.292389,238.806229 362.292664,221.264008 
z" />
	<path fill="#9EDEDE" opacity="1.000000" stroke="none" d="
M609.372070,255.773773 
	C611.259460,248.721863 615.567444,244.873962 622.351196,243.827316 
	C628.741638,242.841354 634.047302,245.078308 637.505005,250.331268 
	C641.233887,255.996155 641.294556,262.364655 638.276367,268.415497 
	C635.166260,274.650543 628.644409,277.368927 621.348450,276.002838 
	C614.660706,274.750641 609.928162,269.667542 609.161072,262.640717 
	C608.928833,260.513672 609.209717,258.330627 609.372070,255.773773 
z" />
	<path fill="#9EDEDE" opacity="1.000000" stroke="none" d="
M854.058533,251.213684 
	C859.246643,262.617798 855.007996,274.383026 845.052734,277.017242 
	C837.502930,279.014984 829.517395,275.082672 826.604187,267.932434 
	C823.211487,259.605164 825.954956,250.002655 832.909973,245.862183 
	C840.231995,241.503250 848.013367,243.356934 854.058533,251.213684 
z" />
	<path fill="#9DDCDC" opacity="1.000000" stroke="none" d="
M927.289001,246.825226 
	C928.306702,249.221741 929.100708,251.317764 930.046204,253.813690 
	C920.590637,253.813690 911.855652,253.813690 903.116760,253.813690 
	C903.313293,248.470139 906.304993,244.143005 910.957642,242.398331 
	C916.745178,240.228073 922.625000,241.734390 927.289001,246.825226 
z" />
	<path fill="#9EDEDE" opacity="1.000000" stroke="none" d="
M1098.478516,243.047348 
	C1101.214111,246.334229 1103.587036,249.449753 1105.959839,252.565277 
	C1105.572876,253.043381 1105.185913,253.521500 1104.798950,253.999603 
	C1100.398804,253.999603 1095.998657,253.999588 1091.598511,253.999588 
	C1087.156128,253.999588 1082.713745,253.999603 1078.227661,253.999603 
	C1079.619507,243.591919 1087.610352,239.255600 1098.478516,243.047348 
z" />
	<path fill="#9DDCDC" opacity="1.000000" stroke="none" d="
M474.058167,253.226257 
	C465.146240,253.655884 456.357422,253.655884 447.571625,253.655884 
	C448.872894,245.654190 453.481384,241.565674 461.294617,241.498535 
	C468.266815,241.438629 472.735016,245.356049 474.058167,253.226257 
z" />
	<path fill="#9DDCDC" opacity="1.000000" stroke="none" d="
M990.145874,264.629944 
	C995.763611,266.308258 996.378845,267.619263 994.140564,272.394043 
	C991.253601,278.552490 983.038086,281.725128 976.874451,279.010986 
	C973.299377,277.436707 970.928223,274.498383 972.178650,270.809418 
	C973.035828,268.280792 975.596924,265.237122 977.990540,264.576447 
	C981.634155,263.570831 985.792419,264.429749 990.145874,264.629944 
z" />
</svg>